<svg width="300" height="200" viewBox="0 0 300 200" fill="none" xmlns="http://www.w3.org/2000/svg">
  <!-- Background -->
  <rect width="300" height="200" fill="#f8fafc"/>
  
  <!-- Floor -->
  <rect x="0" y="160" width="300" height="40" fill="#e2e8f0"/>
  
  <!-- Wall -->
  <rect x="0" y="0" width="300" height="160" fill="#ffffff"/>
  
  <!-- Presentation Screen -->
  <rect x="50" y="20" width="200" height="80" fill="#1e293b" rx="4"/>
  <rect x="55" y="25" width="190" height="70" fill="#475569" rx="2"/>
  
  <!-- Screen Content -->
  <rect x="65" y="35" width="170" height="50" fill="#64748b"/>
  <circle cx="160" cy="60" r="8" fill="#94a3b8"/>
  <rect x="140" y="75" width="40" height="4" fill="#94a3b8" rx="2"/>
  
  <!-- Conference Table -->
  <rect x="30" y="120" width="240" height="20" fill="#475569" rx="10"/>
  <rect x="35" y="125" width="230" height="10" fill="#64748b" rx="5"/>
  
  <!-- Chairs -->
  <circle cx="60" cy="150" r="12" fill="#1e293b"/>
  <circle cx="60" cy="150" r="8" fill="#475569"/>
  <rect x="56" y="150" width="8" height="15" fill="#1e293b" rx="4"/>
  
  <circle cx="120" cy="150" r="12" fill="#1e293b"/>
  <circle cx="120" cy="150" r="8" fill="#475569"/>
  <rect x="116" y="150" width="8" height="15" fill="#1e293b" rx="4"/>
  
  <circle cx="180" cy="150" r="12" fill="#1e293b"/>
  <circle cx="180" cy="150" r="8" fill="#475569"/>
  <rect x="176" y="150" width="8" height="15" fill="#1e293b" rx="4"/>
  
  <circle cx="240" cy="150" r="12" fill="#1e293b"/>
  <circle cx="240" cy="150" r="8" fill="#475569"/>
  <rect x="236" y="150" width="8" height="15" fill="#1e293b" rx="4"/>
  
  <!-- Lighting -->
  <circle cx="150" cy="10" r="15" fill="#fbbf24" opacity="0.3"/>
  <circle cx="150" cy="10" r="8" fill="#fbbf24" opacity="0.6"/>
</svg>

